<svg width="4209" height="4307" viewBox="0 0 4209 4307" fill="none" xmlns="http://www.w3.org/2000/svg">
<path d="M2104.5 0C3266.78 0 4209 964.155 4209 2153.5C4209 3342.85 3266.78 4307 2104.5 4307C942.218 4307 0.000129084 3342.85 0 2153.5C0 964.155 942.218 0 2104.5 0ZM1410.17 712.999C1312.21 712.999 1215.2 732.298 1124.7 769.793C1034.2 807.288 951.968 862.246 882.707 931.526C778.369 1035.83 707.31 1168.75 678.519 1313.44C649.728 1458.14 664.498 1608.13 720.962 1744.43C777.425 1880.74 873.045 1997.23 995.726 2079.19C1041.48 2109.75 1090.23 2135 1141.03 2154.64C1046.42 2191.32 959.379 2247.28 885.901 2320.07V2194.64C885.901 2172.55 867.993 2154.64 845.901 2154.64H825.111C803.02 2154.64 785.111 2172.55 785.111 2194.64V2467.4C785.111 2489.49 803.02 2507.4 825.111 2507.4H1097.88C1119.97 2507.4 1137.88 2489.49 1137.88 2467.4V2446.61C1137.88 2424.52 1119.97 2406.61 1097.88 2406.61H941.672C1001.89 2342.87 1074.49 2292.09 1155.02 2257.38C1233.45 2223.58 1317.79 2205.72 1403.14 2204.8C1405.48 2204.83 1407.83 2204.84 1410.17 2204.84V2204.76C1760.41 2204.85 2046.35 2485.42 2055.12 2833.6C2055 2839.04 2054.94 2844.49 2054.95 2849.94H2055.33C2055.33 2849.99 2055.33 2850.04 2055.33 2850.09C2055.33 3205.91 1765.83 3495.41 1410.01 3495.41C1054.19 3495.41 764.685 3205.91 764.685 2850.09H664.164C664.134 2997.62 707.861 3141.85 789.813 3264.53C871.766 3387.21 988.262 3482.83 1124.57 3539.3C1260.87 3595.76 1410.86 3610.53 1555.56 3581.74C1700.25 3552.95 1833.17 3481.89 1937.47 3377.55C2006.75 3308.29 2061.71 3226.06 2099.21 3135.56C2136.7 3045.05 2156 2948.05 2156 2850.09C2156 2843.66 2155.91 2837.23 2155.75 2830.81C2165.71 2490.46 2440.5 2215.37 2780.73 2204.92C2787.46 2205.11 2794.2 2205.2 2800.95 2205.2C2807.64 2205.2 2814.33 2205.11 2821.01 2204.93C3167.51 2215.65 3446.11 2500.88 3446.11 2849.94C3446.11 3205.76 3156.61 3495.26 2800.79 3495.26C2713.1 3495.25 2626.33 3477.35 2545.8 3442.64C2465.27 3407.93 2392.68 3357.15 2332.45 3293.41H2488.66C2510.75 3293.41 2528.66 3275.5 2528.66 3253.41V3232.62C2528.66 3210.53 2510.75 3192.62 2488.66 3192.62H2215.89C2193.8 3192.62 2175.89 3210.53 2175.89 3232.62V3505.39C2175.89 3527.48 2193.8 3545.39 2215.89 3545.39H2236.68C2258.77 3545.39 2276.68 3527.48 2276.68 3505.39V3379.96C2416.69 3518.65 2605.93 3596.25 2803 3595.77C3000.07 3595.29 3188.93 3516.78 3328.25 3377.4C3397.54 3308.14 3452.49 3225.91 3489.99 3135.41C3527.48 3044.9 3546.78 2947.9 3546.78 2849.94C3546.78 2751.97 3527.48 2654.97 3489.99 2564.47C3452.49 2473.96 3397.54 2391.73 3328.25 2322.47C3254.74 2248.94 3167.02 2191.93 3070.97 2154.6C3076.14 2152.59 3081.29 2150.53 3086.42 2148.41C3176.93 2110.91 3259.16 2055.96 3328.42 1986.67C3467.79 1847.35 3546.3 1658.49 3546.78 1461.42C3547.26 1264.35 3469.66 1075.11 3330.97 935.103H3456.4C3478.49 935.102 3496.4 917.194 3496.4 895.103V874.312C3496.4 852.221 3478.49 834.313 3456.4 834.312H3183.64C3161.54 834.312 3143.64 852.221 3143.64 874.312V1147.08C3143.64 1169.17 3161.54 1187.08 3183.64 1187.08H3204.42C3226.52 1187.08 3244.42 1169.17 3244.42 1147.08V990.873C3308.17 1051.1 3358.94 1123.69 3393.65 1204.22C3428.36 1284.75 3446.27 1371.52 3446.27 1459.21C3446.27 1808.3 3167.61 2093.56 2821.06 2104.22C2807.6 2103.85 2794.14 2103.85 2780.69 2104.22C2439.48 2093.64 2164.12 1816.86 2155.82 1475.09C2155.96 1468.99 2156.02 1462.89 2156 1456.79C2155.99 1452.11 2155.94 1447.43 2155.84 1442.76C2164.26 1107.86 2429.1 835.508 2760.94 815.112C2782.99 813.757 2800.95 795.977 2800.95 773.886V753.357C2800.95 731.269 2783.03 713.25 2760.98 714.429C2627.48 721.566 2498.08 764.481 2386.5 839.015C2263.82 920.967 2168.2 1037.46 2111.74 1173.77C2109.63 1178.86 2107.57 1183.98 2105.58 1189.12C2068.46 1093.42 2011.63 1005.49 1937.64 931.526C1868.38 862.246 1786.15 807.288 1695.64 769.793C1605.14 732.298 1508.14 712.999 1410.17 712.999ZM1410.17 813.67C1759.58 813.67 2045.03 1092.82 2055.21 1439.81C2054.88 1452.63 2054.87 1465.46 2055.2 1478.29C2052.76 1559.39 2035.03 1639.36 2002.87 1713.98C1968.17 1794.51 1917.39 1867.11 1853.65 1927.33V1771.12C1853.65 1749.03 1835.74 1731.12 1813.65 1731.12H1792.86C1770.77 1731.12 1752.86 1749.03 1752.86 1771.12V2043.89C1752.86 2065.98 1770.77 2083.89 1792.86 2083.89H2065.62C2087.71 2083.89 2105.62 2065.98 2105.62 2043.89V2023.1C2105.62 2001.01 2087.71 1983.1 2065.62 1983.1H1940.19C2012.8 1909.81 2068.66 1823.02 2105.34 1728.68C2142.66 1825 2199.77 1912.98 2273.49 1986.67C2342.75 2055.96 2424.98 2110.91 2515.48 2148.41C2520.55 2150.51 2525.65 2152.55 2530.76 2154.54C2525.61 2156.54 2520.47 2158.61 2515.35 2160.73C2379.04 2217.19 2262.55 2312.81 2180.59 2435.49C2150.17 2481.03 2125.02 2529.55 2105.41 2580.09C2103.4 2574.92 2101.34 2569.75 2099.21 2564.62C2061.71 2474.11 2006.75 2391.88 1937.47 2322.62C1798.14 2183.25 1609.29 2104.73 1412.21 2104.26C1409.5 2104.25 1406.79 2104.26 1404.09 2104.28C1051.06 2101 764.85 1812.78 764.85 1458.99C764.85 1103.17 1054.35 813.67 1410.17 813.67Z" fill="url(#paint0_linear_2630_69)"/>
<defs>
<linearGradient id="paint0_linear_2630_69" x1="1416.56" y1="117.521" x2="2839.48" y2="4172.73" gradientUnits="userSpaceOnUse">
<stop stop-color="#06B391"/>
<stop offset="0.1979" stop-color="#08908D"/>
<stop offset="0.3436" stop-color="#0A7389"/>
<stop offset="0.6933" stop-color="#114C79"/>
<stop offset="1" stop-color="#112179"/>
</linearGradient>
</defs>
</svg>
